<svg width="979" height="500" viewBox="0 0 979 500" fill="none" xmlns="http://www.w3.org/2000/svg">
<rect width="979" height="500" fill="white"/>
<path d="M280.743 223.847C278.079 244.818 283.191 254.279 308.521 265.514C311.358 206.321 326.497 184.31 344.632 137.736C346.975 118.887 346.389 110.103 337.687 101.625C321.826 88.9577 316.535 92.8789 311.298 112.736L280.743 223.847Z" fill="url(#paint0_linear_45_587)"/>
<path d="M329.216 278.442L355.384 307.543C349.623 284.728 349.56 273.192 354.63 254.661L374.348 192.185C377.579 178.393 376.45 171.778 369.393 161.907C359.214 155.524 354.327 156.881 347.923 173.193L323.868 241.093C319.959 255.001 320.696 263.131 329.216 278.442Z" fill="url(#paint1_linear_45_587)"/>
<path d="M270.389 240.01C267.328 261.05 261.459 271.573 245.389 288.621C240.498 274.647 238.235 266.141 237.055 246.954L232.889 74.7319C236.578 62.4399 240.592 58.7891 253.722 62.2319C265.657 67.9571 270.217 74.3449 274.555 91.3986L270.389 240.01Z" fill="url(#paint2_linear_45_587)"/>
<path d="M291.222 330.444C298.788 332.195 302.333 354.056 295.389 359.611C287.035 366.294 260.666 369.333 260.666 369.333C244.959 368.125 237.055 357.76 227.333 352.205C217.611 346.649 204.393 321.06 188.444 274.427C172.495 227.794 149.555 113.316 149.555 100.816C149.555 88.3156 153.722 78.5934 171.777 85.5379C189.833 92.4824 197.012 103.184 202.333 127.205L227.333 274.427C230.708 288.452 233.512 296.691 239.833 311.927C245.389 323.686 252.234 331.095 264.833 332.76C270.237 333.474 286.864 329.436 291.222 330.444Z" fill="url(#paint3_linear_45_587)"/>
<path d="M307.889 314.564L300.944 312.389C278.636 312.389 260.466 309.231 266.222 301.278C273.284 292.224 270.389 294.333 280.111 288.778C289.833 283.222 305.111 286 305.111 286L314.952 288.778L321.048 291.101L328.667 295.242L336.286 300.763L342.381 307.663L348.476 314.564L353.048 322.845L357.619 333.886L360.667 342.167V367.01V368.39L357.619 379.431L353.048 390.473L346.952 400.134L339.333 411.175L327.143 420.836L314.952 427.737L301.238 433.257L287.524 437.398L276.857 438.778H255.524H247.905L241.81 437.398L226.571 433.257L212.857 426.357L202.19 419.456L190 409.795L179.333 400.134L171.714 390.473L165.619 382.192L156.476 368.39L148.857 355.969L141.238 342.167L133.619 326.985L126 310.424L116.857 289.721L109.238 273.159L104.667 264.879L101.619 257.978L97.0476 246.937L94 241.416V237.275V231.755L95.5238 227.614L98.5714 223.474L103.143 220.714L109.238 219.333H115.333H122.952L130.571 222.094L139.714 227.614L150.381 237.275L159.524 251.077L167.143 266.259L174.762 284.201L182.381 304.903L190 322.845L199.143 340.787L209.81 357.349L220.476 369.77L234.19 380.811L250.952 389.092L263.143 393.233H281.429L290.571 390.473L299.714 386.332L307.333 382.192L314.952 373.911L322.571 362.869L324.095 355.969V338.027L322.571 333.886L321.048 329.746L319.524 325.605L318 322.845L314.952 318.705L307.889 314.564Z" fill="url(#paint4_linear_45_587)"/>
<path d="M465.916 262.609C467.436 263.809 470.036 265.449 473.716 267.529C477.476 269.609 481.036 270.649 484.396 270.649C487.836 270.649 489.556 269.329 489.556 266.689C489.556 265.489 489.076 264.449 488.116 263.569C487.156 262.609 485.396 261.529 482.836 260.329C480.276 259.129 478.356 258.209 477.076 257.569C475.796 256.849 474.076 255.729 471.916 254.209C469.836 252.609 468.236 250.969 467.116 249.289C463.916 244.729 462.316 238.929 462.316 231.889C462.316 224.849 464.916 218.929 470.116 214.129C475.396 209.249 482.276 206.809 490.756 206.809C496.516 206.809 501.836 207.449 506.716 208.729C511.596 209.929 514.116 211.529 514.276 213.529C514.276 213.769 514.276 214.009 514.276 214.249C514.276 217.049 513.396 220.609 511.636 224.929C509.876 229.169 508.636 231.529 507.916 232.009C502.796 229.369 498.196 228.049 494.116 228.049C490.116 228.049 488.116 229.489 488.116 232.369C488.116 234.129 489.596 235.689 492.556 237.049C493.196 237.369 494.116 237.809 495.316 238.369C496.516 238.929 497.876 239.609 499.396 240.409C500.996 241.129 502.676 242.089 504.436 243.289C506.276 244.409 508.236 245.929 510.316 247.849C514.556 251.849 516.676 257.129 516.676 263.689C516.676 272.249 514.316 279.249 509.596 284.689C504.876 290.129 497.596 292.929 487.756 293.089C482.956 293.089 478.596 292.689 474.676 291.889C470.836 291.089 467.476 289.529 464.596 287.209C461.716 284.889 460.276 282.089 460.276 278.809C460.276 275.529 460.876 272.289 462.076 269.089C463.276 265.809 464.556 263.649 465.916 262.609ZM547.906 291.169C547.906 291.809 544.226 292.129 536.866 292.129C529.586 292.129 525.946 291.849 525.946 291.289V232.369C525.946 231.809 529.586 231.529 536.866 231.529C544.226 231.529 547.906 231.769 547.906 232.249V291.169ZM547.906 225.169C547.906 225.729 544.226 226.009 536.866 226.009C529.586 226.009 525.946 225.769 525.946 225.289V208.009C525.946 207.209 529.586 206.809 536.866 206.809C544.226 206.809 547.906 207.049 547.906 207.529V225.169ZM580.838 291.889C573.078 291.889 567.078 289.409 562.838 284.449C558.598 279.409 556.478 272.009 556.478 262.249C556.478 252.409 559.238 244.729 564.758 239.209C570.358 233.609 577.758 230.809 586.958 230.809C596.238 230.809 603.878 232.849 609.878 236.929V296.689C609.878 302.609 607.478 307.129 602.678 310.249C597.878 313.449 591.718 315.049 584.198 315.049C576.678 315.049 569.958 314.089 564.038 312.169C563.238 310.249 562.838 308.529 562.838 307.009C562.838 301.889 563.678 298.129 565.358 295.729C570.718 298.049 576.438 299.209 582.518 299.209C586.918 299.209 589.118 297.649 589.118 294.529V290.929C585.678 291.569 582.918 291.889 580.838 291.889ZM586.358 250.369C580.998 250.369 578.318 254.409 578.318 262.489C578.318 267.529 579.358 270.809 581.438 272.329C582.798 273.369 584.158 273.889 585.518 273.889C586.878 273.889 588.078 273.769 589.118 273.529V250.729C588.158 250.489 587.238 250.369 586.358 250.369ZM645.713 291.169C645.713 291.729 642.833 292.009 637.073 292.009C629.073 291.769 625.073 291.329 625.073 290.689V251.809H621.953C619.873 251.809 618.513 250.049 617.873 246.529C617.713 245.489 617.633 244.449 617.633 243.409C617.633 240.929 618.113 238.449 619.073 235.969C620.513 232.449 622.753 230.689 625.793 230.689C628.833 230.689 631.553 231.409 633.953 232.849C636.353 234.289 637.953 235.729 638.753 237.169C643.793 232.849 649.793 230.689 656.753 230.689C663.713 230.689 668.753 232.569 671.873 236.329C674.993 240.089 676.553 246.249 676.553 254.809V290.809C676.553 291.769 673.113 292.249 666.233 292.249C659.433 292.249 656.033 291.769 656.033 290.809V256.129C656.033 252.129 654.633 250.129 651.833 250.129C651.033 250.129 649.913 250.489 648.473 251.209C647.033 251.849 646.113 252.329 645.713 252.649V291.169ZM691.887 284.809C686.927 279.289 684.447 271.649 684.447 261.889C684.447 252.129 686.927 244.489 691.887 238.969C696.927 233.449 703.687 230.689 712.167 230.689C720.647 230.689 727.367 233.449 732.327 238.969C737.287 244.489 739.767 252.129 739.767 261.889C739.767 271.649 737.287 279.289 732.327 284.809C727.367 290.329 720.647 293.089 712.167 293.089C703.687 293.089 696.927 290.329 691.887 284.809ZM712.167 250.729C707.687 250.729 705.447 254.409 705.447 261.769C705.447 269.129 707.687 272.809 712.167 272.809C716.727 272.809 719.007 269.129 719.007 261.769C719.007 254.409 716.727 250.729 712.167 250.729ZM774.531 291.769C774.531 292.329 770.891 292.609 763.611 292.609C756.331 292.449 752.691 292.129 752.691 291.649V251.809H749.451C748.171 251.809 747.131 251.049 746.331 249.529C745.611 247.929 745.251 245.969 745.251 243.649C745.251 235.009 747.811 230.689 752.931 230.689C756.531 230.689 759.531 231.809 761.931 234.049C764.331 236.209 765.531 238.689 765.531 241.489C767.211 238.209 769.451 235.609 772.251 233.689C775.131 231.689 778.051 230.689 781.011 230.689C785.651 230.689 788.451 231.889 789.411 234.289C789.651 234.929 789.771 235.889 789.771 237.169C789.771 238.369 789.371 240.569 788.571 243.769C787.851 246.969 787.091 249.289 786.291 250.729C785.491 252.169 785.011 252.889 784.851 252.889C784.691 252.889 783.931 252.609 782.571 252.049C781.291 251.409 780.131 251.089 779.091 251.089C776.051 251.089 774.531 253.489 774.531 258.289V291.769ZM817.789 291.169C817.789 291.809 814.109 292.129 806.749 292.129C799.469 292.129 795.829 291.849 795.829 291.289V232.369C795.829 231.809 799.469 231.529 806.749 231.529C814.109 231.529 817.789 231.769 817.789 232.249V291.169ZM817.789 225.169C817.789 225.729 814.109 226.009 806.749 226.009C799.469 226.009 795.829 225.769 795.829 225.289V208.009C795.829 207.209 799.469 206.809 806.749 206.809C814.109 206.809 817.789 207.049 817.789 207.529V225.169ZM836.201 248.329C833.961 244.329 832.841 241.089 832.841 238.609C832.841 236.049 833.521 234.409 834.881 233.689C839.441 231.689 845.681 230.689 853.601 230.689C861.601 230.689 867.241 232.569 870.521 236.329C873.801 240.009 875.441 245.489 875.441 252.769V271.729H879.521C880.881 271.729 881.921 272.529 882.641 274.129C883.441 275.729 883.841 277.929 883.841 280.729C883.841 283.529 883.121 286.289 881.681 289.009C880.321 291.729 878.441 293.089 876.041 293.089C871.721 293.089 868.241 291.929 865.601 289.609C864.401 288.649 863.481 287.489 862.841 286.129C859.161 290.769 853.441 293.089 845.681 293.089C839.841 293.089 834.921 291.009 830.921 286.849C826.921 282.689 824.921 277.769 824.921 272.089C824.921 259.049 832.721 252.529 848.321 252.529H854.921V251.329C854.921 249.249 854.561 247.929 853.841 247.369C853.201 246.729 851.641 246.409 849.161 246.409C846.121 246.409 841.801 247.049 836.201 248.329ZM845.801 270.409C845.801 272.169 846.281 273.529 847.241 274.489C848.201 275.369 849.401 275.809 850.841 275.809C852.361 275.809 853.721 275.209 854.921 274.009V264.769H851.561C847.721 264.769 845.801 266.649 845.801 270.409Z" fill="#022F40"/>
<defs>
<linearGradient id="paint0_linear_45_587" x1="325.944" y1="101.278" x2="285.666" y2="266.556" gradientUnits="userSpaceOnUse">
<stop stop-color="#022F40"/>
<stop offset="1" stop-color="#ADF5FF"/>
</linearGradient>
<linearGradient id="paint1_linear_45_587" x1="362.055" y1="180.445" x2="294" y2="298.5" gradientUnits="userSpaceOnUse">
<stop stop-color="#022F40"/>
<stop offset="1" stop-color="#ADF5FF"/>
</linearGradient>
<linearGradient id="paint2_linear_45_587" x1="238.444" y1="55.4444" x2="263.444" y2="273.5" gradientUnits="userSpaceOnUse">
<stop stop-color="#022F40"/>
<stop offset="1" stop-color="#ADF5FF"/>
</linearGradient>
<linearGradient id="paint3_linear_45_587" x1="135.666" y1="76.2777" x2="259.277" y2="313.778" gradientUnits="userSpaceOnUse">
<stop stop-color="#022F40"/>
<stop offset="1" stop-color="#ADF5FF"/>
</linearGradient>
<linearGradient id="paint4_linear_45_587" x1="63.4444" y1="406.833" x2="274.556" y2="311" gradientUnits="userSpaceOnUse">
<stop offset="0.0363955" stop-color="#022F40"/>
<stop offset="1" stop-color="#ADF5FF"/>
</linearGradient>
</defs>
</svg>
