<svg width="50" height="61" viewBox="0 0 50 61" fill="none" xmlns="http://www.w3.org/2000/svg">
<path d="M29.8785 26.0552C29.4523 29.4105 30.2702 30.9242 34.3229 32.7219C34.7769 23.2511 37.1992 19.7292 40.1007 12.2774C40.4755 9.26156 40.3818 7.85609 38.9896 6.49963C36.4518 4.47288 35.6051 5.10027 34.7674 8.27741L29.8785 26.0552Z" fill="url(#paint0_linear_62_1017)"/>
<path d="M37.6343 34.7911L41.8213 39.4472C40.8995 35.7968 40.8895 33.9509 41.7006 30.9861L44.8556 20.9899C45.3724 18.7831 45.1919 17.7248 44.0627 16.1453C42.4341 15.124 41.6521 15.3412 40.6275 17.9511L36.7787 28.8151C36.1533 31.0405 36.2712 32.3412 37.6343 34.7911Z" fill="url(#paint1_linear_62_1017)"/>
<path d="M28.2227 28.6416C27.7329 32.0081 26.7939 33.6917 24.2227 36.4193C23.4401 34.1836 23.078 32.8225 22.8893 29.7527L22.2227 2.19711C22.813 0.230391 23.4551 -0.353743 25.556 0.197106C27.4656 1.11314 28.1952 2.13519 28.8893 4.86377L28.2227 28.6416Z" fill="url(#paint2_linear_62_1017)"/>
<path d="M31.5553 43.1112C32.7659 43.3914 33.3331 46.889 32.222 47.7779C30.8854 48.8471 26.6665 49.3334 26.6665 49.3334C24.1532 49.1402 22.8887 47.4817 21.3331 46.5928C19.7776 45.7039 17.6628 41.6096 15.1109 34.1484C12.559 26.6871 8.88867 8.37063 8.88867 6.37062C8.88868 4.37061 9.55534 2.81505 12.4442 3.92617C15.3331 5.03729 16.4818 6.74951 17.3331 10.5928L21.3331 34.1484C21.873 36.3925 22.3217 37.7106 23.3331 40.1484C24.222 42.0299 25.3173 43.2153 27.3331 43.4817C28.1978 43.596 30.8581 42.9499 31.5553 43.1112Z" fill="url(#paint3_linear_62_1017)"/>
<path d="M34.2222 40.5699L33.1111 40.2219C29.5418 40.2219 26.6346 39.7166 27.5556 38.4441C28.6854 36.9955 28.2222 37.333 29.7778 36.4441C31.3333 35.5552 33.7778 35.9997 33.7778 35.9997L35.3524 36.4441L36.3276 36.8159L37.5467 37.4784L38.7657 38.3617L39.7409 39.4658L40.7162 40.5699L41.4476 41.8949L42.179 43.6614L42.6667 44.9864V48.9612V49.1821L42.179 50.9487L41.4476 52.7153L40.4724 54.261L39.2533 56.0276L37.3029 57.5734L35.3524 58.6775L33.1581 59.5608L30.9638 60.2233L29.2571 60.4441H25.8438H24.6248L23.6495 60.2233L21.2114 59.5608L19.0171 58.4567L17.3105 57.3526L15.36 55.8068L13.6533 54.261L12.4343 52.7153L11.459 51.3903L9.99619 49.1821L8.77714 47.1946L7.55809 44.9864L6.33905 42.5573L5.12 39.9074L3.65714 36.5951L2.43809 33.9452L1.70667 32.6202L1.21905 31.5161L0.487619 29.7495L0 28.8662V28.2037V27.3204L0.24381 26.658L0.731429 25.9955L1.46286 25.5538L2.43809 25.333H3.41333H4.63238L5.85143 25.7747L7.31428 26.658L9.02095 28.2037L10.4838 30.412L11.7029 32.841L12.9219 35.7118L14.141 39.0241L15.36 41.8949L16.8229 44.7656L18.5295 47.4155L20.2362 49.4029L22.4305 51.1695L25.1124 52.4944L27.0629 53.1569H29.9886L31.4514 52.7153L32.9143 52.0528L34.1333 51.3903L35.3524 50.0654L36.5714 48.2988L36.8152 47.1946V44.3239L36.5714 43.6614L36.3276 42.999L36.0838 42.3365L35.84 41.8949L35.3524 41.2324L34.2222 40.5699Z" fill="url(#paint4_linear_62_1017)"/>
<defs>
<linearGradient id="paint0_linear_62_1017" x1="37.1107" y1="6.44412" x2="30.6662" y2="32.8886" gradientUnits="userSpaceOnUse">
<stop stop-color="#022F40"/>
<stop offset="1" stop-color="#ADF5FF"/>
</linearGradient>
<linearGradient id="paint1_linear_62_1017" x1="42.8887" y1="19.1114" x2="31.9998" y2="38.0003" gradientUnits="userSpaceOnUse">
<stop stop-color="#022F40"/>
<stop offset="1" stop-color="#ADF5FF"/>
</linearGradient>
<linearGradient id="paint2_linear_62_1017" x1="23.1115" y1="-0.888889" x2="27.1115" y2="34" gradientUnits="userSpaceOnUse">
<stop stop-color="#022F40"/>
<stop offset="1" stop-color="#ADF5FF"/>
</linearGradient>
<linearGradient id="paint3_linear_62_1017" x1="6.66645" y1="2.44455" x2="26.4442" y2="40.4446" gradientUnits="userSpaceOnUse">
<stop stop-color="#022F40"/>
<stop offset="1" stop-color="#ADF5FF"/>
</linearGradient>
<linearGradient id="paint4_linear_62_1017" x1="-4.88889" y1="55.333" x2="28.8889" y2="39.9997" gradientUnits="userSpaceOnUse">
<stop offset="0.0363955" stop-color="#022F40"/>
<stop offset="1" stop-color="#ADF5FF"/>
</linearGradient>
</defs>
</svg>
